<?xml version="1.0" standalone="no"?>
<!DOCTYPE svg PUBLIC "-//W3C//DTD SVG 20010904//EN"
 "http://www.w3.org/TR/2001/REC-SVG-20010904/DTD/svg10.dtd">
<svg version="1.0" xmlns="http://www.w3.org/2000/svg"
 width="1024.000000pt" height="1024.000000pt" viewBox="0 0 1024.000000 1024.000000"
 preserveAspectRatio="xMidYMid meet">
<metadata>
Created by potrace 1.11, written by Peter Selinger 2001-2013
</metadata>
<g transform="translate(0.000000,1024.000000) scale(0.100000,-0.100000)"
fill="#000000" stroke="none">
<path d="M4180 8699 c-1232 -17 -2437 -66 -2810 -115 -331 -43 -575 -155 -796
-367 -170 -162 -276 -357 -368 -678 -56 -194 -84 -347 -110 -610 -62 -611 -76
-948 -76 -1819 0 -859 15 -1206 75 -1809 27 -265 47 -378 101 -574 132 -482
322 -740 673 -917 324 -162 735 -209 2186 -250 1824 -51 3359 -43 4875 26 972
43 1165 71 1428 203 363 183 563 453 696 938 54 196 74 309 101 574 60 603 75
950 75 1809 0 871 -14 1208 -76 1819 -26 262 -55 425 -110 614 -93 318 -199
513 -368 674 -221 212 -465 324 -796 367 -389 51 -1537 96 -2915 116 -742 11
-980 10 -1785 -1z m1272 -2761 c752 -392 1367 -715 1367 -718 0 -3 -84 -48
-187 -101 -103 -53 -717 -372 -1366 -708 -648 -336 -1183 -611 -1187 -611 -5
0 -9 633 -9 1425 0 784 3 1425 7 1425 4 0 622 -321 1375 -712z"/>
</g>
</svg>
